<?xml version="1.0" encoding="UTF-8"?><svg id="Layer_1" xmlns="http://www.w3.org/2000/svg" viewBox="0 0 1437.46 360"><defs><style>.cls-1{fill:#00848e;}.cls-2{fill:#6ca25f;}.cls-3{fill:#96b53e;}.cls-4{fill:#228f7d;}</style></defs><rect class="cls-1" x="0" width="103.25" height="359.81"/><path class="cls-3" d="m1437.46,284.75c-32.62,45.49-85.94,75.12-146.18,75.12-99.29,0-179.78-80.49-179.78-179.78S1191.99.32,1291.28.32c57.89,0,109.39,27.36,142.26,69.87l-89.9,44.71c-14.33-11.53-32.55-18.43-52.36-18.43-46.19,0-83.63,37.44-83.63,83.63s37.44,83.63,83.63,83.63c22.12,0,42.24-8.59,57.2-22.62l88.98,43.65Z"/><path class="cls-4" d="m687.33,359.73h-205.82l-14.42-39.04-46.27-125.33-46.28,125.33-14.41,39.04h-80.93l-14.41-39.04L146.45.08h109.75l63.49,171.97,46.27-125.33L383.16.12h75.34l17.21,46.61,46.27,125.33L585.45.12h52.2c.13,1.21.47,2.44,1.02,3.64,2.3,5.03,7.36,2.47,12.2,7.15,1.83,1.78.28,6.87.46,11.86.18,5.39.91,9.62-.23,11.51-2.87,4.76-6.13,4.73-9.97,11-3.46,5.65-4.71,11.39-6.87,11.22-.81-.06-.99-1.69-1.72-1.49-12.25,3.38-30.19,1.26-30.36,12.95-.14,9.58,7.87,13.7,6.76,23.36-1.55,13.47-5.16,1.55-7.79,11.57-1.99,7.55.07,10.76-3.1,14.21-4.11,4.49-8.53-1.49-13.63,5.16-2.32,3.02,2.53,3.08,1.89,9.85-.4,4.24-5.9,4.99-7.15,17.65-.61,6.11,1.32,9.39,2.98,16.67,2.58,11.28-1.18,13.51,2.63,18.62,4.88,6.53,7.56,4.64,14.21,11.22,1.56,1.55,1.59,3.62,2.52,5.74,2.64,6.01,7.75,2.22,14.94,11.49.62.8,1.26,1.7,1.91,2.71,5.9,9.16,1.37,26.7,9.04,28.65,1.71.43,4.99-1.15,6.42-6.65.48-1.82,7.41,1.05,8.94,1.94,7.77,4.56,10.99,8.13,8.59,16.28-4.62,15.58-13.01,21.53-12.03,30.36,1.14,10.31,13.57,20.9,22.68,24.51.64.26-.34,3.26.92,4.01,1.16.71,2.86-.62,3.66-.8,3.05-.68,30.88,21.03,20.77,45.23Z"/><path class="cls-2" d="m998.12,226.25c50-18.24,80.84-61.17,81.06-110.86.26-56.79-49.58-115.31-107.42-115.2h-194.1c2.2,10.63,12.07,24.22,14.36,35.92,1.89,9.74,2.1,28.88,2.98,75.04.57,30.02-2.18,41.59-.01,45.38,2.32,4.06.38,11.91.92,22.44.39,7.5,1.74-3.67,2.18,9.39.5,14.59-2.98,23.19-5.69,28.42-6.12,11.76-.35,8.74,1.07,11.3,1.14,2.06-.65,3.23,2.67,8.85,4.36,7.38,1.69,16.12,1.84,20.24.09,2.54-3.06.46-5.35,4.66-1.44,2.64-.58,3.68-1.76,7.41-1.06,3.35-2.78,2.4-5.96,8.01-3.67,6.48-2.61,7.94-5.28,8.99-2.78,1.1-5.03.53-5.79,1.66-3.26,4.93,3.39,5.56,2.24,9.22-.82,2.61-3.5,2.3-4.99,3.21-1.67,1.03,1.35.18,1.72,2.98.49,3.63-1.54,5.47-1.75,10.07-.1,2.17.22,4.12-.67,4.95-1.59,1.48-.3,13.25-3.37,25.14-.82,3.19-6.03,3.62-11.14,4.51-3.45.6-6.84,1.4-8.84,3.4-1.4,1.39-.74,4.03-.48,8.6h112.58v-128.25h33.22l92.69,128.02h109.75l-96.68-133.52Zm-57.56-65.83h-81.42v-88.9h86.72c16.54,0,35.17,19.48,35.17,43.61s-22.07,45.3-40.48,45.3Z"/></svg>